<?xml version="1.0" encoding="UTF-8"?>
<svg version="1.1" viewBox="0 0 20 20" xmlns="http://www.w3.org/2000/svg">
  <g fill="#ffffff" stroke-width=".13798">
    <path d="m5.5333 15.767c1.3657 0 2.474-1.1081 2.474-2.4761 0-1.3648-1.1081-2.4728-2.474-2.4728-1.3625 0-2.4707 1.1081-2.4707 2.4728 0 1.368 1.1081 2.4761 2.4707 2.4761zm-3.0333-2.4761c0-1.6761 1.3604-3.0333 3.0333-3.0333 1.6773 0 3.0366 1.3572 3.0366 3.0333 0 1.6773-1.3594 3.0345-3.0366 3.0345-1.673 0-3.0333-1.3572-3.0333-3.0345z"/>
    <path d="m14.467 15.799c1.3625 0 2.4707-1.106 2.4707-2.4739 0-1.3657-1.1081-2.474-2.4707-2.474-1.3657 0-2.474 1.1081-2.474 2.474 0 1.3681 1.1081 2.4739 2.474 2.4739zm-3.0366-2.4739c0-1.6773 1.3615-3.0334 3.0366-3.0334 1.673 0 3.0333 1.3561 3.0333 3.0334 0 1.6773-1.3604 3.0345-3.0333 3.0345-1.6752 1.39e-4 -3.0366-1.3571-3.0366-3.0345z"/>
    <path d="m11.439 5.9209c0.62946 0 1.1415-0.50886 1.1415-1.1383 0-0.62947-0.5119-1.1426-1.1415-1.1426-0.62959 0-1.1426 0.51314-1.1426 1.1426 0 0.62946 0.51315 1.1383 1.1426 1.1383z"/>
    <path d="m11.486 8.6959c-0.16598 0.00321-0.34384-0.079714-0.47534-0.28672l-0.74053-1.1587-1.5297 1.5145 1.4175 0.74592c0.58324 0.27913 0.4959 0.79227 0.4959 0.79227v3.2102c0 0.36329-0.2932 0.65968-0.65761 0.65968-0.3633 0-0.6565-0.2964-0.6565-0.65968v-2.571l-2.4588-1.3657c-0.29321-0.16394-0.49148-0.47645-0.49148-0.83327 0-0.24684 0.090514-0.47216 0.24574-0.64037l2.4114-2.4168c0.29969-0.33846 0.71791-0.28453 0.71791-0.28453 0.50556 0 0.77075 0.44086 0.77075 0.44086l1.2537 1.964 1.9026-0.00321c0.68452 0 0.68452 0.89258 0 0.89258z"/>
  </g>
</svg>
